<?xml version="1.0" standalone="no"?>
<!DOCTYPE svg PUBLIC "-//W3C//DTD SVG 20010904//EN"
 "http://www.w3.org/TR/2001/REC-SVG-20010904/DTD/svg10.dtd">
<svg version="1.0" xmlns="http://www.w3.org/2000/svg"
 width="572.000000pt" height="572.000000pt" viewBox="0 0 572.000000 572.000000"
 preserveAspectRatio="xMidYMid meet">

<g transform="translate(0.000000,572.000000) scale(0.100000,-0.100000)"
fill="#000000" stroke="none">
<path d="M2861 5682 c-7 -17 -38 -59 -68 -94 -56 -64 -103 -144 -103 -174 0
-13 3 -14 14 -4 8 6 25 10 38 8 45 -6 60 -134 21 -174 -20 -20 -77 -18 -96 4
-24 26 -21 78 4 103 11 11 26 18 32 16 47 -20 50 -20 43 -8 -5 7 -18 16 -30
20 -51 19 -105 -49 -85 -107 10 -30 59 -62 94 -62 73 0 108 113 65 209 -24 53
-25 73 -3 114 l17 32 7 -70 c7 -72 31 -155 54 -189 13 -17 14 -17 28 10 24 47
39 104 46 179 l6 70 19 -34 c20 -37 18 -62 -9 -132 -37 -94 8 -198 80 -186 18
3 45 13 59 22 35 23 37 94 4 125 -25 23 -78 24 -86 2 -3 -11 0 -12 16 -3 39
21 72 -10 72 -67 0 -37 -28 -62 -68 -62 -22 0 -36 7 -46 23 -39 60 -22 167 26
167 13 0 29 -5 36 -12 9 -9 12 -8 12 5 0 30 -40 99 -101 174 -33 40 -59 76
-59 81 0 4 -6 16 -13 26 -13 17 -14 16 -26 -12z m49 -127 l21 -70 -27 -73
c-14 -40 -28 -72 -29 -70 -2 2 -13 28 -24 58 -25 66 -26 100 -5 166 9 27 18
55 20 63 7 23 21 1 44 -74z m-156 -106 c-5 -9 -34 -13 -34 -4 0 2 5 16 12 30
12 26 12 26 20 5 4 -12 6 -26 2 -31z m266 32 c0 -5 3 -16 6 -25 4 -11 1 -16
-10 -16 -10 0 -16 9 -16 25 0 14 5 25 10 25 6 0 10 -4 10 -9z"/>
<path d="M2514 5492 c-38 -25 -43 -89 -13 -157 11 -25 18 -49 16 -52 -3 -2
-23 5 -46 16 -66 34 -167 54 -207 41 -38 -13 -84 -62 -84 -91 0 -29 27 -77 49
-89 31 -16 76 -12 96 10 10 11 16 22 13 25 -3 3 -11 -1 -18 -10 -18 -21 -62
-19 -88 5 -47 44 -36 101 24 126 30 13 42 12 97 0 81 -19 145 -48 203 -92 25
-19 48 -33 51 -31 2 3 -5 36 -16 73 -11 38 -23 101 -26 139 -8 84 -22 107 -51
87z m36 -97 c13 -91 13 -118 -1 -110 -26 17 -54 146 -38 177 16 30 27 11 39
-67z"/>
<path d="M3201 5486 c-5 -6 -14 -56 -21 -111 -7 -54 -19 -116 -27 -138 -20
-49 -12 -56 28 -23 74 63 237 122 301 109 33 -7 68 -46 68 -78 0 -33 -44 -75
-79 -75 -16 0 -33 5 -36 10 -3 6 -11 10 -17 10 -6 0 -3 -9 7 -20 26 -28 79
-26 110 4 55 55 40 126 -33 158 -42 19 -47 19 -115 4 -40 -9 -91 -27 -115 -41
-24 -14 -42 -19 -40 -12 2 6 12 38 22 69 16 48 18 63 8 96 -13 41 -43 60 -61
38z m43 -81 c-7 -47 -42 -131 -50 -122 -7 6 14 176 23 190 14 22 34 -29 27
-68z"/>
<path d="M2313 5274 c-3 -8 -1 -20 4 -25 14 -14 213 -79 213 -69 0 14 -82 81
-117 96 -44 19 -92 18 -100 -2z m93 -19 c25 -19 1 -19 -41 0 -30 13 -30 13 -4
14 14 1 34 -6 45 -14z"/>
<path d="M3335 5273 c-44 -23 -116 -83 -110 -92 2 -5 51 8 107 28 86 30 104
40 106 59 3 20 -1 22 -35 22 -21 -1 -51 -8 -68 -17z m46 -19 c-18 -8 -38 -13
-45 -11 -14 6 32 26 59 26 14 -1 10 -5 -14 -15z"/>
<path d="M2106 5257 c-6 -19 -3 -42 9 -73 9 -25 15 -47 13 -50 -3 -2 -31 1
-64 7 -60 11 -77 10 -194 -14 l-65 -13 40 -13 c77 -26 65 -34 -40 -27 -99 7
-101 6 -125 -19 -13 -14 -28 -25 -33 -25 -5 0 -39 -26 -75 -57 -37 -32 -69
-59 -71 -60 -2 -2 -1 -6 2 -10 4 -3 83 24 175 60 177 69 264 94 425 122 53 10
97 21 97 26 0 4 -9 14 -21 23 -34 23 -53 58 -60 106 -5 42 -6 43 -13 17z m-47
-133 c45 -9 38 -18 -22 -31 -54 -11 -103 -8 -113 8 -13 21 71 35 135 23z
m-272 -75 c27 -10 25 -12 -60 -45 -103 -40 -135 -44 -98 -13 13 11 30 18 38
15 8 -3 17 2 20 12 16 44 44 53 100 31z"/>
<path d="M3630 5247 c0 -47 -21 -89 -54 -111 -37 -24 -32 -34 22 -41 163 -23
355 -81 600 -181 23 -9 45 -14 48 -11 3 3 -11 21 -32 39 -20 18 -51 45 -68 60
-17 15 -36 28 -42 28 -6 0 -21 11 -34 25 -24 25 -26 26 -125 19 -105 -7 -117
1 -40 27 l40 13 -90 18 c-74 16 -102 17 -160 9 -38 -6 -71 -8 -74 -5 -3 2 3
20 12 39 19 40 21 73 7 95 -7 11 -10 5 -10 -23z m187 -128 l28 -11 -28 -13
c-28 -11 -125 -4 -151 12 -30 19 107 29 151 12z m241 -87 c9 -16 22 -27 28
-25 6 2 22 -5 35 -16 35 -29 9 -26 -88 10 -83 32 -98 44 -65 52 48 13 72 7 90
-21z"/>
<path d="M2660 5080 c-245 -25 -380 -45 -576 -85 -159 -33 -385 -99 -445 -130
-42 -22 -90 -66 -100 -92 -38 -101 -59 -466 -31 -545 18 -50 55 -78 103 -78
22 0 39 -4 39 -9 0 -5 -25 -71 -55 -146 -31 -76 -67 -186 -82 -244 -14 -58
-29 -109 -32 -113 -4 -5 -96 -8 -205 -8 -195 -1 -246 -8 -246 -32 0 -22 -88
-127 -122 -144 -17 -9 -47 -31 -66 -50 -29 -28 -33 -37 -27 -65 8 -34 6 -34
-47 4 -32 24 -48 16 -48 -25 0 -23 -9 -39 -33 -60 l-32 -28 33 -27 c22 -19 32
-37 32 -56 0 -37 25 -45 60 -18 36 26 43 26 35 1 -9 -27 3 -60 21 -60 8 0 19
-11 24 -24 4 -13 20 -26 33 -30 32 -8 81 -57 124 -123 l34 -53 127 0 c183 0
292 -10 292 -26 0 -19 106 -344 141 -433 16 -40 29 -77 29 -80 0 -4 -12 -6
-27 -4 -16 3 -46 -2 -67 -9 -51 -17 -54 -30 -65 -233 -13 -233 5 -335 66 -390
73 -66 275 -137 583 -205 80 -17 183 -40 230 -50 144 -32 296 -45 525 -44 228
1 359 12 505 44 47 10 150 33 230 50 250 55 478 128 545 174 63 43 78 65 96
142 19 87 8 456 -16 494 -7 12 -72 30 -107 30 -16 0 -28 2 -28 5 0 2 13 37 29
77 33 84 126 368 136 414 l6 31 91 7 c50 3 144 6 209 6 l118 0 39 58 c47 68
86 109 115 118 11 4 36 23 55 42 29 32 33 41 27 71 l-6 34 31 -26 c51 -44 76
-35 71 24 -1 9 14 28 34 43 l36 28 -35 26 c-25 20 -35 34 -34 52 2 28 -8 50
-22 50 -5 0 -22 -11 -38 -25 -39 -33 -44 -32 -37 9 6 29 3 37 -19 51 -14 10
-26 23 -26 30 0 7 -11 16 -24 19 -36 9 -80 50 -117 109 -18 28 -39 57 -47 64
-10 9 -75 12 -220 13 -113 0 -209 3 -213 7 -3 5 -18 57 -33 116 -15 60 -51
170 -81 244 -30 75 -52 140 -49 144 3 5 20 9 37 9 40 0 72 21 95 63 35 66 17
434 -29 566 -12 33 -77 79 -159 111 -126 50 -434 122 -660 155 -104 16 -511
56 -540 54 -8 -1 -94 -9 -190 -19z m590 -30 c233 -28 603 -106 738 -155 121
-44 187 -87 207 -137 34 -85 60 -406 39 -485 -8 -28 -17 -29 -52 -3 -70 52
-336 145 -484 170 -68 11 -186 31 -263 45 -269 46 -678 57 -950 25 -81 -10
-382 -60 -512 -85 -82 -16 -369 -126 -406 -155 -51 -40 -57 -24 -57 145 0 136
21 288 50 351 16 38 28 48 97 82 94 47 172 73 318 106 286 64 436 89 700 116
127 13 382 4 575 -20z m-20 -551 c101 -9 371 -55 406 -69 61 -24 288 -429 352
-630 65 -201 77 -289 77 -560 -1 -277 -2 -285 -97 -605 -56 -187 -74 -227
-179 -401 -105 -176 -118 -192 -153 -203 -63 -19 -387 -60 -573 -72 -166 -11
-224 -10 -425 5 -128 9 -296 28 -373 41 -77 13 -145 24 -152 25 -22 0 -62 55
-149 200 -97 161 -135 239 -157 320 -9 30 -29 102 -47 160 -62 210 -71 270
-77 495 -5 196 -3 219 21 353 33 180 78 315 157 478 60 125 182 322 233 377
14 15 36 27 49 27 13 0 78 11 143 24 113 23 288 43 439 50 99 5 392 -4 505
-15z m-1295 -154 c30 -20 55 -38 55 -41 0 -18 -56 -84 -72 -84 -32 0 -93 37
-128 77 l-33 37 49 23 c27 13 55 23 61 23 7 0 37 -16 68 -35z m1997 18 c24 -9
47 -19 51 -23 13 -11 -57 -85 -97 -104 -53 -25 -70 -20 -101 26 -31 47 -36 38
45 93 43 29 49 29 102 8z m-2214 -55 c-3 -7 -15 -14 -29 -16 -23 -2 -23 -2 -5
13 24 18 39 20 34 3z m2348 -3 c18 -14 18 -14 -8 -15 -18 0 -28 5 -28 15 0 19
11 19 36 0z m-2386 -66 c0 -5 -8 -9 -17 -10 -15 0 -15 -2 2 -9 14 -6 0 -8 -45
-8 -54 1 -59 2 -30 8 31 7 32 7 8 9 -27 1 -38 16 -18 23 20 6 100 -4 100 -13z
m2498 3 c2 -7 -6 -13 -20 -13 -20 -1 -19 -3 7 -9 23 -6 15 -8 -35 -8 -46 0
-58 2 -40 8 24 8 24 8 3 9 -40 2 -25 20 20 24 54 4 60 3 65 -11z m-2532 -61
c-18 -7 -66 -3 -66 5 0 2 19 4 43 3 30 0 36 -3 23 -8z m2502 -2 c-18 -7 -33
-7 -45 0 -14 8 -9 10 27 10 42 -1 43 -1 18 -10z m-2422 -58 c22 -16 59 -35 82
-43 23 -7 42 -16 42 -21 0 -4 -9 -26 -20 -47 -14 -27 -27 -40 -41 -40 -26 0
-109 43 -133 68 -17 20 -17 23 -1 66 10 25 21 46 24 46 4 0 25 -13 47 -29z
m2368 -16 c12 -27 15 -44 9 -55 -16 -26 -86 -68 -125 -75 -35 -7 -37 -5 -57
34 -28 53 -27 58 12 65 17 4 52 22 77 41 25 18 50 32 55 31 6 -1 18 -20 29
-41z m-2471 -254 c24 -16 59 -36 80 -45 34 -14 37 -18 31 -43 -17 -70 -25 -72
-110 -32 -64 30 -78 50 -70 104 4 25 12 45 17 45 6 0 29 -13 52 -29z m2572 -8
c15 -35 14 -39 -3 -63 -43 -57 -154 -93 -166 -52 -2 9 -7 27 -11 39 -6 20 1
26 59 54 36 17 71 37 77 45 18 22 28 17 44 -23z m-2720 -243 c0 -18 -79 -27
-253 -29 l-113 -1 -82 -84 c-45 -46 -91 -88 -102 -94 -19 -10 -20 -21 -20
-157 l0 -146 35 -26 c45 -35 110 -100 136 -136 l20 -29 179 -6 c166 -7 180 -8
183 -26 4 -19 -2 -19 -187 -12 -105 3 -197 9 -205 12 -9 3 -26 25 -40 48 -14
24 -43 58 -66 77 -22 19 -57 49 -77 67 -20 17 -40 32 -45 32 -4 0 -5 18 -2 40
9 53 -15 64 -55 26 -34 -33 -45 -33 -39 -1 4 20 -2 32 -25 51 l-31 26 27 24
c27 23 29 23 53 8 13 -9 27 -15 29 -12 3 3 -6 11 -20 18 -25 13 -42 46 -31 58
4 3 19 -7 36 -23 41 -39 64 -29 57 26 -5 35 -2 42 13 46 11 3 22 13 25 24 3
10 25 28 48 41 37 21 57 42 123 133 20 28 22 29 150 35 199 11 279 8 279 -10z
m3168 4 c52 -5 59 -9 74 -37 28 -55 66 -97 116 -127 26 -17 47 -36 47 -44 0
-7 9 -16 21 -19 17 -5 19 -11 14 -39 -5 -25 -2 -38 10 -48 13 -11 20 -9 45 15
21 20 33 26 41 18 7 -7 6 -15 -5 -26 -15 -14 -14 -16 3 -22 10 -3 27 -15 37
-26 18 -20 17 -21 -10 -43 -22 -17 -27 -27 -22 -43 10 -33 -10 -36 -37 -7 -14
15 -32 24 -43 22 -16 -3 -19 -11 -16 -46 2 -32 -1 -42 -13 -42 -9 0 -20 -10
-26 -23 -5 -12 -27 -31 -47 -42 -31 -17 -72 -62 -132 -144 -14 -19 -29 -21
-212 -27 -175 -6 -198 -5 -198 8 0 23 13 25 140 27 196 2 225 8 256 48 33 43
68 79 118 120 37 30 39 35 46 105 9 102 -4 219 -27 232 -30 17 -122 108 -143
141 l-20 32 -186 6 c-182 6 -214 12 -199 37 7 12 221 8 368 -6z m-3015 -60
l52 -16 -6 -51 c-4 -29 -11 -55 -17 -58 -15 -10 -65 7 -125 43 l-54 33 7 49
c3 28 8 53 11 58 3 4 22 -3 42 -17 20 -14 61 -33 90 -41z m2638 16 c6 -27 8
-53 5 -58 -11 -16 -97 -69 -130 -81 -44 -14 -57 -3 -66 59 l-7 46 54 17 c29 9
69 28 88 41 19 14 37 25 41 26 3 0 10 -22 15 -50z m-2801 -11 c3 -3 0 -41 -7
-85 -7 -46 -12 -178 -11 -316 l0 -238 -121 1 c-145 1 -225 11 -236 30 -5 7
-43 47 -84 89 l-75 75 -7 71 c-4 39 -3 97 0 128 7 54 10 59 99 148 l91 92 76
7 c84 8 266 6 275 -2z m3092 2 l81 -8 92 -91 92 -92 5 -73 c3 -41 3 -99 -1
-129 -7 -53 -11 -59 -98 -148 l-90 -93 -169 -5 -170 -5 7 159 c5 143 -7 399
-22 461 -5 17 -1 22 18 26 38 7 168 6 255 -2z m-2945 -311 c38 0 48 -12 48
-56 0 -39 -2 -44 -23 -44 -37 0 -113 26 -146 49 -27 20 -31 28 -31 71 l0 49
68 -34 c37 -19 75 -35 84 -35z m2651 -48 c-30 -24 -111 -52 -150 -52 -21 0
-23 5 -23 45 0 41 2 45 28 51 55 12 88 25 127 48 l40 25 3 -47 c3 -41 0 -50
-25 -70z m-2744 -192 c42 -16 68 -21 152 -29 4 -1 9 -14 12 -30 3 -16 9 -41
13 -56 l7 -28 -54 5 c-52 6 -161 46 -172 64 -8 14 -19 94 -13 94 3 0 28 -9 55
-20z m2767 -2 c-3 -13 -6 -35 -6 -49 0 -23 -9 -30 -61 -53 -64 -28 -129 -42
-152 -33 -12 4 -13 15 -5 55 l10 50 57 7 c31 4 75 15 96 25 55 26 69 25 61 -2z
m-2611 -310 c77 -3 86 -11 100 -89 6 -35 6 -37 -25 -41 -37 -6 -123 7 -162 23
-20 8 -33 26 -48 65 -11 30 -20 59 -20 64 0 5 19 2 43 -6 23 -8 73 -15 112
-16z m2538 -39 c-17 -50 -22 -55 -65 -71 -49 -18 -162 -28 -174 -15 -4 4 1 33
11 66 l18 59 71 0 c39 0 89 7 111 15 22 8 41 11 43 7 1 -4 -5 -31 -15 -61z
m-2454 -263 l93 -1 20 -39 c13 -24 16 -42 10 -48 -25 -25 -157 -37 -193 -17
-11 6 -29 31 -40 56 -24 56 -24 67 -1 57 9 -4 59 -8 111 -8z m2361 3 c0 -30
-44 -108 -63 -113 -51 -13 -167 0 -189 22 -7 7 -2 24 13 52 l23 41 66 -6 c36
-3 81 -1 100 4 48 12 50 12 50 0z m-2458 -136 c8 -10 -2 -13 -52 -13 -74 0
-77 -7 -5 -11 59 -3 75 -8 75 -21 0 -14 -123 1 -132 16 -12 18 -9 26 15 36 31
12 86 9 99 -7z m2541 -2 c8 -8 -5 -11 -51 -11 -58 0 -72 6 -54 24 10 11 91 1
105 -13z m-3 -30 c0 -10 -119 -25 -128 -16 -4 3 0 10 8 15 19 12 120 13 120 1z
m52 -205 c10 -346 -4 -361 -447 -485 -625 -174 -1015 -194 -1538 -81 -78 17
-162 37 -187 45 -25 7 -106 30 -180 50 -252 67 -329 104 -371 178 -23 40 -24
51 -27 247 -1 113 1 211 6 218 7 10 19 6 56 -14 109 -61 534 -167 812 -204
266 -35 480 -45 680 -31 284 19 489 50 744 112 232 57 406 118 426 150 15 25
22 -21 26 -185z m-2567 164 c8 -12 -61 -12 -90 0 -15 6 -6 9 32 9 28 1 55 -3
58 -9z m2470 0 c-29 -12 -98 -12 -90 0 3 6 30 10 58 9 38 0 47 -3 32 -9z
m-2460 -38 c-3 -3 -11 0 -18 7 -9 10 -8 11 6 5 10 -3 15 -9 12 -12z m2380 8
c-3 -5 -12 -10 -18 -10 -7 0 -6 4 3 10 19 12 23 12 15 0z m-2048 -59 l25 -43
-33 7 c-146 29 -218 54 -164 55 17 1 48 8 70 15 59 19 73 15 102 -34z m1838
25 l60 -13 -35 -11 c-49 -16 -181 -45 -185 -40 -2 1 8 22 22 46 23 38 29 43
52 37 14 -4 53 -13 86 -19z"/>
<path d="M2810 4947 c0 -8 7 -17 15 -21 12 -4 15 -25 15 -97 0 -82 -2 -91 -20
-96 -11 -3 -20 -12 -20 -19 0 -11 25 -14 125 -14 l125 0 0 50 c0 38 -4 50 -15
50 -8 0 -15 -8 -15 -18 0 -29 -33 -52 -74 -52 l-37 0 3 42 c4 48 24 61 38 24
16 -43 30 -30 30 29 0 42 -3 55 -15 55 -8 0 -15 -7 -15 -15 0 -8 -9 -15 -20
-15 -16 0 -20 7 -20 34 0 38 17 50 58 40 37 -9 52 -23 52 -46 0 -13 6 -18 18
-16 12 2 18 15 20 46 l3 42 -79 0 c-44 0 -100 3 -126 6 -37 6 -46 4 -46 -9z"/>
<path d="M2558 4943 c-34 -3 -48 -8 -48 -19 0 -7 8 -14 19 -14 16 0 20 -11 26
-85 7 -88 4 -105 -21 -105 -9 0 -14 -6 -11 -12 4 -15 127 -17 190 -5 68 14 89
93 32 119 l-24 11 19 25 c26 32 25 57 -2 76 -22 16 -66 18 -180 9z m120 -35
c18 -18 14 -46 -7 -58 -38 -20 -51 -13 -51 30 0 35 3 40 23 40 13 0 28 -5 35
-12z m24 -123 c14 -30 -2 -51 -42 -57 -21 -3 -25 2 -31 34 -7 45 -5 48 33 48
21 0 32 -7 40 -25z"/>
<path d="M3178 4888 c-14 -29 -33 -75 -44 -102 -11 -28 -28 -53 -42 -59 -36
-17 -20 -32 36 -35 40 -2 52 0 52 11 0 8 -7 18 -15 21 -13 4 -14 10 -5 26 8
15 18 19 38 16 15 -2 33 -5 40 -5 18 -1 15 -51 -3 -51 -8 0 -15 -6 -15 -14 0
-10 20 -16 68 -21 60 -6 109 -14 180 -30 26 -6 31 20 8 39 -21 16 -9 76 14 76
43 0 51 -10 44 -60 -6 -42 -4 -49 17 -64 34 -23 66 -20 85 9 19 29 9 49 -10
22 -21 -27 -27 -20 -25 26 1 23 -1 49 -5 59 -5 11 -2 18 13 23 24 7 35 37 26
66 -9 27 -51 43 -152 60 -86 13 -110 9 -78 -15 18 -13 18 -18 6 -92 -7 -44
-15 -82 -18 -86 -2 -5 -18 -8 -34 -8 -35 0 -40 10 -65 133 -9 49 -22 90 -28
92 -61 18 -64 17 -88 -37z m51 -75 c1 -17 -5 -23 -19 -23 -23 0 -25 16 -9 57
10 26 12 27 19 8 5 -11 9 -30 9 -42z m329 35 c17 -14 15 -45 -4 -56 -8 -4 -29
-6 -45 -4 -28 4 -30 7 -23 36 3 17 8 35 11 39 5 9 42 0 61 -15z"/>
<path d="M2325 4910 c-22 -4 -61 -11 -87 -14 -32 -5 -48 -12 -48 -22 0 -8 8
-14 19 -14 15 0 20 -13 30 -69 6 -39 11 -82 11 -96 0 -24 -3 -26 -32 -23 -30
3 -38 12 -88 95 -47 79 -59 92 -82 93 -44 0 -55 -20 -62 -127 -5 -68 -12 -103
-24 -116 -24 -27 -4 -37 51 -26 47 11 67 39 27 39 -25 0 -28 45 -4 54 47 18
94 -8 65 -37 -23 -23 -13 -36 20 -27 18 5 68 14 113 20 45 6 91 13 104 15 27
6 30 35 3 35 -23 0 -38 69 -18 82 28 18 49 3 65 -47 18 -53 36 -64 87 -51 26
7 43 52 25 70 -8 8 -12 4 -16 -12 -9 -33 -22 -27 -30 13 -3 20 -15 40 -26 46
-20 11 -20 11 1 30 59 55 -4 109 -104 89z m51 -56 c7 -29 0 -39 -37 -48 -29
-6 -39 6 -39 50 0 21 5 24 35 24 29 0 36 -4 41 -26z m-306 -121 c0 -7 -12 -13
-26 -13 -22 0 -25 3 -20 23 3 12 6 29 6 37 1 18 39 -28 40 -47z"/>
<path d="M3710 4835 c0 -8 7 -15 15 -15 19 0 19 -9 -4 -96 -22 -86 -27 -95
-47 -87 -12 4 -15 1 -12 -13 2 -14 19 -22 68 -32 36 -7 86 -20 112 -29 52 -16
83 -9 54 13 -24 17 -4 58 25 49 10 -3 28 -8 39 -11 13 -3 20 -14 20 -30 0 -17
-5 -24 -20 -24 -41 0 -18 -28 40 -48 58 -19 87 -15 61 11 -7 7 -11 54 -11 124
0 101 -2 113 -19 123 -43 23 -60 12 -128 -80 -67 -91 -71 -94 -110 -84 -28 8
-29 27 -4 114 14 52 22 66 39 68 41 6 22 29 -36 46 -72 20 -82 20 -82 1z m270
-156 c0 -37 -2 -40 -22 -33 -13 3 -25 8 -27 10 -4 3 38 64 45 64 2 0 4 -18 4
-41z"/>
<path d="M1613 4808 c-13 -6 -23 -15 -23 -20 0 -7 55 15 69 28 9 8 -25 2 -46
-8z"/>
<path d="M4091 4816 c14 -13 69 -35 69 -28 0 9 -44 32 -62 32 -6 0 -9 -2 -7
-4z"/>
<path d="M1745 4770 c-60 -18 -166 -58 -174 -66 -2 -2 17 -2 42 1 38 4 48 1
57 -14 14 -28 13 -39 -7 -44 -14 -4 -13 -5 4 -6 18 -1 25 -11 38 -53 14 -49
14 -54 -2 -66 -11 -8 -14 -15 -7 -22 6 -6 38 0 93 20 113 40 131 53 131 94 0
35 -12 51 -45 58 -12 2 -18 10 -16 19 24 87 -10 110 -114 79z m62 -46 c8 -22
-9 -48 -34 -52 -15 -2 -24 5 -32 29 -6 18 -11 34 -11 35 0 2 16 4 35 4 24 0
38 -5 42 -16z m41 -116 c2 -20 -4 -31 -23 -44 -32 -21 -43 -12 -52 40 l-6 37
39 -3 c34 -3 39 -7 42 -30z"/>
<path d="M4140 4710 c8 -5 22 -10 30 -10 13 0 13 1 0 10 -8 5 -22 10 -30 10
-13 0 -13 -1 0 -10z"/>
<path d="M1610 4630 c-8 -5 -10 -10 -5 -10 6 0 17 5 25 10 8 5 11 10 5 10 -5
0 -17 -5 -25 -10z"/>
<path d="M4140 4626 c0 -2 7 -7 16 -10 8 -3 12 -2 9 4 -6 10 -25 14 -25 6z"/>
<path d="M1615 4441 c-22 -11 -37 -20 -34 -20 10 -1 79 29 79 34 0 7 0 7 -45
-14z"/>
<path d="M4100 4366 c0 -3 14 -12 30 -21 17 -9 30 -13 30 -11 0 3 -13 12 -30
21 -16 9 -30 13 -30 11z"/>
<path d="M1606 4345 c-11 -8 -16 -15 -10 -15 5 0 18 7 28 15 11 8 16 15 10 15
-5 0 -18 -7 -28 -15z"/>
<path d="M1560 4320 c-9 -6 -10 -10 -3 -10 6 0 15 5 18 10 8 12 4 12 -15 0z"/>
<path d="M2740 4386 c0 -47 5 -88 10 -91 6 -4 10 27 10 84 0 54 -4 91 -10 91
-6 0 -10 -35 -10 -84z"/>
<path d="M2559 4456 c-7 -7 7 -115 15 -124 13 -12 14 6 3 66 -7 35 -15 61 -18
58z"/>
<path d="M2930 4370 c-21 -90 -23 -152 -2 -75 26 92 40 165 32 165 -4 0 -18
-41 -30 -90z"/>
<path d="M3140 4375 c-12 -38 -36 -103 -52 -142 -33 -80 -33 -125 -1 -52 31
69 85 239 80 252 -2 7 -14 -19 -27 -58z"/>
<path d="M2362 4418 c2 -6 10 -14 16 -16 7 -2 10 2 6 12 -7 18 -28 22 -22 4z"/>
<path d="M3030 4378 c0 -19 2 -20 10 -8 13 19 13 30 0 30 -5 0 -10 -10 -10
-22z"/>
<path d="M3236 4364 c-10 -38 0 -41 12 -5 6 17 7 31 3 31 -5 0 -12 -12 -15
-26z"/>
<path d="M3302 4293 c-87 -151 -103 -184 -100 -195 2 -6 37 49 77 122 74 136
94 195 23 73z"/>
<path d="M2224 4293 c-33 -6 -65 -47 -70 -90 l-5 -38 178 -93 c98 -50 221
-115 273 -142 93 -49 95 -50 98 -28 4 27 37 65 64 74 11 3 57 -16 126 -54 159
-88 172 -96 172 -106 0 -29 -124 -205 -214 -304 -126 -138 -296 -285 -467
-402 -101 -70 -110 -79 -111 -120 -1 -32 14 -50 43 -50 23 0 337 223 379 269
3 4 46 42 95 86 50 43 86 75 82 70 -5 -6 -150 -154 -323 -329 -204 -206 -311
-323 -305 -329 17 -17 57 1 109 48 27 25 52 45 54 45 3 0 16 -10 29 -21 63
-56 162 -132 239 -183 165 -111 523 -271 726 -324 69 -18 94 -9 94 33 0 41
-32 62 -150 101 -336 109 -620 260 -798 422 l-63 57 116 122 c114 119 117 121
148 112 18 -5 42 -20 54 -34 12 -14 25 -25 28 -25 3 0 103 96 221 214 l216
213 -16 31 c-51 99 -135 81 -282 -60 -46 -45 -87 -78 -91 -75 -3 4 -2 7 4 7
16 0 148 163 221 272 36 54 68 98 73 98 4 0 31 -11 61 -25 53 -25 83 -30 112
-19 27 10 18 20 -34 42 -27 11 -93 46 -147 77 -94 55 -248 138 -458 250 -55
29 -154 82 -220 117 -142 77 -209 101 -261 91z"/>
<path d="M2842 4270 c0 -14 2 -19 5 -12 2 6 2 18 0 25 -3 6 -5 1 -5 -13z"/>
<path d="M3385 4215 c-15 -28 -56 -99 -92 -159 -35 -60 -61 -111 -58 -114 7
-7 6 -8 50 73 22 39 61 105 87 148 27 43 47 84 45 90 -2 6 -16 -11 -32 -38z"/>
<path d="M3606 4165 c-10 -14 -16 -29 -13 -31 7 -8 39 35 35 47 -2 7 -12 0
-22 -16z"/>
<path d="M3465 4009 c-96 -110 -119 -139 -113 -144 5 -5 176 184 191 211 20
35 -14 6 -78 -67z"/>
<path d="M3690 3958 c-79 -69 -172 -143 -211 -169 -13 -9 -21 -20 -18 -24 4
-3 64 40 134 97 183 148 181 146 174 153 -4 3 -40 -22 -79 -57z"/>
<path d="M1940 3993 c0 -11 179 -167 185 -161 4 4 -149 148 -172 162 -7 4 -13
3 -13 -1z"/>
<path d="M3685 3745 c-191 -107 -188 -105 -182 -111 5 -5 313 169 332 187 18
18 -2 8 -150 -76z"/>
<path d="M1860 3802 c0 -12 189 -116 197 -108 8 8 13 5 -99 65 -54 28 -98 48
-98 43z"/>
<path d="M3885 3640 c-8 -13 5 -13 25 0 13 8 13 10 -2 10 -9 0 -20 -4 -23 -10z"/>
<path d="M1810 3627 c0 -8 170 -69 182 -65 7 3 -19 16 -57 31 -76 28 -125 42
-125 34z"/>
<path d="M3769 3600 c-13 -8 -96 -39 -198 -76 -8 -2 -12 -7 -9 -10 8 -7 238
77 238 87 0 11 -11 11 -31 -1z"/>
<path d="M3940 3450 c0 -5 9 -10 20 -10 11 0 20 5 20 10 0 6 -9 10 -20 10 -11
0 -20 -4 -20 -10z"/>
<path d="M1763 3435 c9 -10 133 -44 160 -45 9 0 17 4 17 9 0 4 -30 13 -67 20
-38 6 -79 14 -93 17 -14 4 -21 3 -17 -1z"/>
<path d="M3820 3420 c0 -13 11 -13 30 0 12 8 11 10 -7 10 -13 0 -23 -4 -23
-10z"/>
<path d="M3672 3400 c-18 -4 -36 -11 -40 -15 -10 -11 101 5 113 16 11 11 -25
11 -73 -1z"/>
<path d="M1745 3240 c3 -5 44 -10 91 -10 49 0 84 4 84 10 0 6 -37 10 -91 10
-57 0 -88 -4 -84 -10z"/>
<path d="M3681 3246 c8 -8 319 -13 319 -4 0 4 -73 8 -162 8 -89 0 -159 -2
-157 -4z"/>
<path d="M3730 3090 c0 -5 6 -10 13 -10 6 0 30 -3 52 -6 27 -4 35 -2 25 4 -24
15 -90 24 -90 12z"/>
<path d="M1808 3077 c-38 -6 -68 -14 -68 -19 0 -12 25 -10 110 8 121 25 96 32
-42 11z"/>
<path d="M3896 3062 c-3 -6 7 -12 22 -15 25 -5 41 -2 31 7 -12 10 -48 16 -53
8z"/>
<path d="M1818 2903 c-21 -9 -38 -20 -38 -24 0 -11 -1 -12 53 7 26 9 44 20 41
25 -7 11 -10 11 -56 -8z"/>
<path d="M3730 2916 c0 -8 140 -58 151 -54 6 2 -19 16 -55 31 -61 25 -96 33
-96 23z"/>
<path d="M1930 2740 c0 -5 5 -10 10 -10 6 0 10 5 10 10 0 6 -4 10 -10 10 -5 0
-10 -4 -10 -10z"/>
<path d="M1859 2701 c-19 -16 -20 -20 -8 -21 17 0 45 27 37 35 -3 3 -16 -3
-29 -14z"/>
<path d="M3760 2712 c0 -8 43 -32 55 -32 15 0 1 19 -20 28 -31 14 -35 15 -35
4z"/>
<path d="M1972 2529 c-47 -36 -65 -59 -44 -59 12 1 107 88 102 93 -3 3 -29
-12 -58 -34z"/>
<path d="M3755 2481 c-3 -5 -1 -12 5 -16 5 -3 10 1 10 9 0 18 -6 21 -15 7z"/>
<path d="M2070 2358 c-23 -26 -27 -46 -4 -28 16 14 38 50 30 50 -3 0 -14 -10
-26 -22z"/>
<path d="M3580 2353 c1 -12 109 -130 110 -118 0 6 -20 35 -45 65 -43 53 -65
71 -65 53z"/>
<path d="M2162 2300 c-32 -57 -37 -69 -25 -71 10 -1 64 102 60 115 -2 6 -18
-14 -35 -44z"/>
<path d="M3380 2233 c0 -12 66 -132 81 -147 21 -22 7 16 -30 79 -43 73 -51 84
-51 68z"/>
<path d="M2316 2135 c-3 -8 -1 -15 4 -15 6 0 10 7 10 15 0 8 -2 15 -4 15 -2 0
-6 -7 -10 -15z"/>
<path d="M3197 2100 c3 -11 9 -20 14 -20 11 0 11 3 3 24 -9 23 -23 20 -17 -4z"/>
<path d="M2536 2082 c-4 -13 -5 -26 -2 -29 10 -11 18 4 14 29 l-4 23 -8 -23z"/>
<path d="M2970 2051 c0 -17 5 -33 10 -36 6 -4 10 8 10 29 0 20 -4 36 -10 36
-5 0 -10 -13 -10 -29z"/>
<path d="M2740 2050 c0 -11 5 -20 10 -20 6 0 10 9 10 20 0 11 -4 20 -10 20 -5
0 -10 -9 -10 -20z"/>
<path d="M1042 3308 c-37 -19 -43 -88 -7 -88 23 0 31 31 12 45 -20 14 -12 25
19 25 63 0 77 -49 22 -78 -47 -25 -88 -67 -88 -91 0 -23 10 -27 27 -10 9 9 22
7 53 -5 23 -9 50 -14 60 -11 16 5 40 44 40 65 0 19 -18 10 -23 -11 -5 -18 -11
-21 -38 -15 -17 3 -45 6 -61 6 -42 0 -27 15 40 40 31 12 60 27 64 33 14 21 8
64 -9 80 -24 21 -83 29 -111 15z"/>
<path d="M1284 3310 c-12 -4 -31 -21 -44 -37 -18 -23 -21 -37 -17 -76 8 -85
79 -128 144 -88 64 40 64 152 0 191 -35 22 -50 23 -83 10z m64 -32 c7 -7 12
-39 12 -73 0 -66 -11 -85 -47 -85 -27 0 -43 32 -43 85 0 53 16 85 43 85 13 0
28 -5 35 -12z"/>
<path d="M4425 3299 c-4 -5 -18 -14 -31 -19 -29 -11 -32 -30 -4 -30 18 0 20
-7 20 -65 0 -58 -2 -65 -20 -65 -11 0 -20 -7 -20 -15 0 -12 14 -15 65 -15 51
0 65 3 65 15 0 8 -9 15 -20 15 -23 0 -34 45 -27 115 5 50 1 75 -13 75 -5 0
-12 -5 -15 -11z"/>
<path d="M4572 3263 c3 -50 19 -61 29 -21 5 20 11 23 48 21 24 -1 46 -4 48 -7
3 -3 -10 -23 -27 -45 -40 -49 -48 -116 -15 -116 16 0 21 9 27 48 3 27 20 69
37 96 17 26 31 53 31 59 0 16 -17 15 -22 0 -4 -10 -14 -9 -46 0 -30 9 -48 10
-61 2 -13 -7 -22 -7 -26 0 -15 24 -26 7 -23 -37z"/>
<path d="M1560 2137 c14 -8 36 -17 50 -21 l25 -7 -25 14 c-14 8 -36 17 -50 21
l-25 7 25 -14z"/>
<path d="M4155 2129 c-22 -10 -29 -16 -15 -13 28 7 80 33 65 33 -5 0 -28 -9
-50 -20z"/>
<path d="M1550 2090 c20 -13 33 -13 25 0 -3 6 -14 10 -23 10 -15 0 -15 -2 -2
-10z"/>
<path d="M4175 2090 c-8 -13 5 -13 25 0 13 8 13 10 -2 10 -9 0 -20 -4 -23 -10z"/>
<path d="M1565 2025 c17 -8 37 -14 45 -14 8 0 -1 7 -20 14 -46 18 -64 17 -25
0z"/>
<path d="M4160 2025 c-19 -7 -28 -14 -20 -14 8 0 29 6 45 14 39 17 21 18 -25
0z"/>
<path d="M1655 1990 c17 -19 17 -22 1 -62 -27 -71 -29 -72 -70 -58 -21 7 -39
10 -42 8 -2 -3 15 -11 38 -18 42 -12 42 -13 18 -23 -14 -5 -32 -9 -40 -8 -35
6 2 -11 52 -24 29 -7 72 -19 96 -25 33 -10 45 -10 57 0 17 14 20 66 4 76 -7 4
-2 11 13 18 29 14 34 47 11 68 -15 14 -136 68 -151 68 -3 0 3 -9 13 -20z m90
-42 c28 -12 33 -39 11 -57 -13 -11 -41 -5 -64 14 -3 3 20 55 24 55 2 0 15 -5
29 -12z m-14 -86 c38 -32 7 -71 -46 -58 -22 6 -24 10 -19 34 12 49 26 55 65
24z"/>
<path d="M1548 1983 c7 -3 16 -2 19 1 4 3 -2 6 -13 5 -11 0 -14 -3 -6 -6z"/>
<path d="M4055 1968 c-27 -11 -61 -25 -75 -30 -24 -10 -24 -10 -5 -18 28 -11
74 -138 54 -150 -7 -5 -11 -12 -7 -15 3 -3 44 9 92 27 84 32 86 33 80 60 -4
20 -2 28 8 29 7 0 2 5 -11 10 -19 8 -27 6 -33 -6 -15 -25 -36 -17 -48 20 -13
38 -30 47 -30 15 0 -11 -7 -23 -15 -27 -19 -7 -22 -5 -30 28 -5 21 -2 27 20
37 38 18 61 15 78 -10 11 -15 19 -19 24 -12 4 6 17 16 28 23 18 11 18 12 -7 7
-21 -5 -28 -2 -33 14 -8 25 -26 25 -90 -2z m39 -120 c-5 -7 5 -9 30 -4 50 9
49 -17 -1 -37 l-38 -15 -13 30 c-11 25 -11 33 -1 39 16 10 31 1 23 -13z"/>
<path d="M1565 1950 c11 -5 27 -9 35 -9 9 0 8 4 -5 9 -11 5 -27 9 -35 9 -9 0
-8 -4 5 -9z"/>
<path d="M3850 1894 c-41 -14 -75 -26 -77 -27 -7 -7 19 -77 29 -77 6 0 8 9 5
19 -5 22 19 64 33 56 4 -2 16 -34 25 -70 15 -53 16 -67 5 -80 -20 -24 -8 -26
43 -9 45 15 66 38 30 32 -17 -3 -21 6 -59 125 -8 26 40 22 59 -5 13 -19 16
-20 16 -6 1 23 -17 68 -26 67 -5 -1 -42 -12 -83 -25z"/>
<path d="M1868 1831 c-30 -42 -60 -71 -70 -71 -10 0 -18 -4 -18 -8 0 -12 80
-35 88 -26 4 4 1 9 -5 11 -16 6 -17 29 -3 38 6 4 24 4 40 0 23 -5 30 -12 30
-31 0 -18 -5 -24 -22 -24 -30 0 -14 -12 35 -27 45 -13 54 -11 41 9 -5 7 -13
53 -19 103 -13 118 -25 121 -97 26z m62 -11 c0 -30 -6 -35 -34 -24 -14 5 -14
8 1 30 21 32 33 30 33 -6z"/>
<path d="M2050 1851 c0 -5 6 -11 14 -14 21 -8 -13 -141 -37 -145 -31 -6 -18
-18 30 -29 50 -12 69 -8 41 8 -13 7 -15 15 -8 40 12 41 14 43 40 29 16 -9 20
-19 19 -49 -2 -20 1 -42 5 -49 16 -26 66 -6 66 27 0 12 -3 12 -12 3 -19 -19
-26 -14 -20 13 2 14 -1 32 -8 40 -10 12 -10 15 2 15 24 0 51 36 44 58 -7 21
-32 33 -101 51 -49 13 -75 14 -75 2z m128 -45 c22 -21 3 -47 -32 -44 -32 3
-44 24 -32 54 6 17 41 11 64 -10z"/>
<path d="M3655 1845 c-5 -2 -29 -9 -52 -15 -41 -10 -59 -30 -28 -30 8 0 18
-16 24 -37 24 -93 24 -96 7 -109 -27 -19 -2 -26 48 -13 46 11 62 29 27 29 -11
0 -21 9 -25 23 -10 39 -7 47 23 47 23 0 30 -6 37 -32 7 -25 16 -34 36 -36 31
-4 53 25 37 49 -7 11 -9 11 -9 -3 0 -27 -13 -21 -37 17 -18 29 -19 36 -7 46
17 14 18 41 2 57 -11 11 -60 15 -83 7z m50 -44 c0 -30 -51 -53 -66 -30 -23 36
-3 59 46 56 14 -2 20 -9 20 -26z"/>
<path d="M2276 1811 c-4 -5 0 -14 8 -18 24 -13 0 -142 -28 -153 -26 -10 -17
-14 72 -30 54 -10 67 -9 88 5 27 18 32 56 9 75 -14 11 -13 14 5 27 47 33 12
76 -74 88 -27 4 -54 9 -61 11 -7 3 -16 1 -19 -5z m123 -45 c19 -23 2 -46 -35
-46 -29 0 -34 3 -34 23 0 13 3 27 7 30 11 12 50 8 62 -7z m-15 -79 c31 -22 16
-52 -27 -55 -36 -3 -37 -3 -37 32 0 31 3 36 23 36 13 0 31 -6 41 -13z"/>
<path d="M3407 1796 c-62 -23 -85 -65 -67 -121 38 -114 209 -92 210 27 0 27
-8 46 -27 67 -35 37 -67 45 -116 27z m70 -24 c15 -10 33 -57 33 -88 0 -31 -33
-64 -64 -64 -50 0 -84 87 -56 141 11 20 63 26 87 11z"/>
<path d="M1575 1766 c17 -7 44 -16 60 -19 l30 -6 -31 14 c-17 8 -44 16 -60 20
l-29 5 30 -14z"/>
<path d="M4132 1763 c-24 -8 -41 -17 -39 -19 5 -5 107 25 107 31 0 8 -23 4
-68 -12z"/>
<path d="M2516 1691 c-20 -43 -44 -82 -52 -85 -28 -11 -13 -26 26 -26 37 0 55
13 28 22 -6 2 -9 12 -5 21 5 13 16 17 42 15 19 -1 35 -5 35 -9 0 -4 3 -14 6
-23 4 -12 0 -16 -16 -16 -11 0 -18 -4 -15 -10 8 -13 95 -13 95 -1 0 5 -5 11
-11 13 -6 2 -21 42 -33 88 -18 68 -27 86 -43 88 -16 2 -27 -13 -57 -77z m63
-18 c1 -7 -8 -13 -19 -13 -23 0 -25 12 -8 43 11 21 11 21 19 2 4 -11 8 -26 8
-32z"/>
<path d="M3161 1744 c-26 -22 -31 -33 -31 -71 0 -60 40 -103 97 -103 21 0 46
6 55 13 20 16 35 67 19 67 -6 0 -11 -4 -11 -10 0 -17 -39 -50 -60 -50 -54 0
-84 105 -41 144 29 26 73 17 89 -17 17 -35 32 -24 25 18 -4 29 -7 31 -58 33
-45 2 -58 -2 -84 -24z"/>
<path d="M2830 1740 c-7 -12 -10 -30 -7 -40 3 -11 -5 -28 -19 -41 -28 -27 -31
-60 -6 -82 13 -11 38 -15 99 -15 89 0 108 10 100 50 l-4 23 -8 -22 c-7 -23
-31 -37 -45 -28 -13 8 29 75 46 75 8 0 14 5 14 10 0 6 -18 10 -40 10 -37 0
-55 -13 -29 -22 12 -4 1 -38 -12 -38 -5 0 -16 11 -25 25 -16 24 -15 27 0 44
10 11 16 30 14 43 -4 33 -62 39 -78 8z m58 -17 c-5 -25 -28 -28 -28 -4 0 12 6
21 16 21 9 0 14 -7 12 -17z m-23 -104 c19 -36 15 -44 -20 -35 -18 5 -25 13
-25 30 0 45 23 48 45 5z"/>
<path d="M1570 1694 c0 -7 111 -57 115 -52 2 2 -23 16 -55 30 -33 14 -60 24
-60 22z"/>
<path d="M4156 1685 c-11 -8 -15 -15 -9 -15 6 0 16 7 23 15 16 19 11 19 -14 0z"/>
<path d="M4093 1660 c-34 -14 -28 -21 7 -9 17 6 30 13 30 15 0 6 -12 4 -37 -6z"/>
<path d="M1418 4720 c-3 -37 -13 -67 -31 -94 -21 -30 -27 -51 -27 -91 0 -44
-6 -62 -41 -116 -75 -115 -75 -169 -2 -252 72 -81 85 -126 57 -196 -31 -77
-129 -93 -177 -29 -18 24 -19 32 -9 66 16 52 42 74 84 70 23 -2 36 -10 43 -25
12 -28 25 -30 25 -5 0 45 -69 69 -119 42 -43 -23 -66 -113 -41 -161 13 -23 61
-49 92 -49 36 0 99 42 119 78 9 18 19 30 21 25 9 -16 -13 -89 -45 -153 -38
-77 -51 -81 -132 -46 -66 30 -80 31 -118 11 -15 -8 -34 -12 -42 -9 -16 6 -131
-43 -122 -52 3 -3 94 -3 202 1 l197 8 18 30 c10 16 31 67 45 112 25 76 26 87
15 139 -9 44 -24 72 -66 124 -89 111 -103 156 -58 191 33 26 45 26 78 0 32
-25 31 -59 -1 -74 -25 -11 -31 -35 -10 -35 19 0 44 30 52 60 9 39 -27 80 -71
80 -34 0 -45 15 -25 36 6 5 26 41 45 80 43 87 75 231 59 265 -9 21 -11 18 -15
-31z m-18 -139 c-13 -49 -30 -63 -30 -24 0 28 27 79 37 70 2 -3 -1 -23 -7 -46z
m-187 -803 c21 -11 21 -11 2 -19 -32 -12 -175 -11 -175 2 0 7 12 9 34 5 24 -5
37 -2 46 9 15 18 63 20 93 3z"/>
<path d="M4318 4742 c-15 -55 33 -225 89 -314 31 -50 29 -56 -14 -60 -25 -2
-42 -11 -56 -30 -18 -24 -18 -30 -7 -58 15 -35 47 -57 62 -42 7 7 0 15 -18 24
-38 18 -41 42 -10 73 31 30 45 31 80 4 46 -36 30 -89 -55 -187 -55 -63 -71
-108 -67 -186 4 -68 42 -181 72 -212 13 -14 406 -30 406 -17 0 13 -108 56
-125 50 -8 -4 -29 1 -46 10 -31 15 -36 15 -78 -1 -86 -33 -109 -39 -126 -33
-23 9 -74 123 -81 182 l-5 50 17 -33 c34 -65 115 -97 172 -68 17 9 36 25 42
35 25 48 2 138 -41 161 -50 27 -119 3 -119 -42 0 -25 13 -23 25 5 7 16 20 23
45 25 51 4 85 -34 85 -93 0 -50 -18 -70 -73 -81 -46 -9 -85 11 -110 55 -38 67
-25 124 47 200 76 82 78 148 9 252 -35 52 -43 72 -46 123 -3 45 -11 70 -29 94
-16 21 -28 54 -32 85 -5 40 -8 47 -13 29z m50 -137 c14 -30 16 -65 4 -65 -8 0
-32 65 -32 84 0 16 18 4 28 -19z m266 -831 c11 -11 25 -14 46 -9 19 4 30 3 30
-4 0 -13 -130 -13 -170 -1 l-25 7 25 11 c37 16 76 14 94 -4z"/>
<path d="M1024 3995 c-42 -64 26 -148 129 -160 29 -3 66 -1 82 4 29 9 28 9
-15 10 -61 1 -84 20 -125 102 -20 38 -40 69 -45 69 -5 0 -17 -11 -26 -25z m55
-57 c34 -67 34 -68 23 -68 -15 0 -62 51 -68 75 -6 24 0 55 10 55 2 0 18 -28
35 -62z"/>
<path d="M4653 3944 c-41 -82 -56 -93 -126 -95 -41 -1 -42 -1 -12 -10 36 -12
118 -3 156 16 38 20 69 62 69 94 0 27 -24 71 -40 71 -5 0 -26 -34 -47 -76z
m67 20 c0 -36 -16 -61 -49 -79 l-29 -15 26 60 c28 63 52 78 52 34z"/>
<path d="M928 3618 c-21 -7 -28 -16 -28 -36 0 -15 -7 -36 -15 -46 -42 -55 7
-62 66 -9 35 31 69 80 69 98 0 8 -63 4 -92 -7z m62 -15 c0 -14 -52 -73 -64
-73 -18 0 -9 51 12 68 17 13 52 17 52 5z"/>
<path d="M4730 3623 c0 -34 100 -133 134 -133 20 0 21 33 1 50 -8 7 -15 25
-15 41 0 15 -4 31 -10 34 -18 11 -110 18 -110 8z m96 -26 c6 -10 12 -67 6 -67
-15 0 -72 62 -66 71 5 8 54 4 60 -4z"/>
<path d="M873 2965 c-3 -9 2 -24 11 -34 9 -10 16 -29 16 -43 0 -33 16 -46 67
-54 51 -8 61 6 34 49 -40 66 -115 114 -128 82z m86 -60 c37 -43 37 -45 9 -45
-33 0 -44 11 -51 48 -8 41 3 41 42 -3z"/>
<path d="M4817 2954 c-31 -17 -90 -102 -80 -117 7 -11 82 -1 100 15 7 6 13 23
13 38 0 15 7 33 15 40 20 17 19 40 -2 40 -10 -1 -31 -8 -46 -16z m16 -46 c-8
-43 -15 -50 -49 -46 l-29 3 37 38 c20 20 39 37 42 37 3 0 3 -15 -1 -32z"/>
<path d="M950 2729 c0 -12 93 -49 125 -49 18 0 37 -4 40 -10 10 -16 70 -11
116 10 24 11 59 20 77 20 30 0 35 -4 57 -52 27 -59 55 -160 47 -168 -2 -3 -7
1 -10 9 -3 8 -19 30 -37 49 -26 29 -40 35 -83 40 -47 4 -54 2 -82 -26 -83 -84
23 -243 118 -176 12 8 22 24 22 35 0 26 -13 24 -25 -3 -22 -50 -87 -34 -117
26 -18 38 -19 48 -9 74 23 54 98 73 148 36 70 -52 65 -152 -11 -234 -49 -52
-71 -107 -62 -153 4 -17 25 -63 48 -101 33 -53 44 -83 49 -130 4 -42 14 -73
33 -100 19 -28 26 -52 26 -85 1 -38 2 -43 12 -27 24 42 -22 212 -86 319 l-35
57 33 0 c61 0 100 54 75 103 -18 33 -59 52 -59 27 0 -5 7 -10 15 -10 9 0 20
-11 26 -24 22 -48 -33 -92 -86 -68 -52 24 -39 91 34 176 62 71 84 121 84 187
0 57 -5 76 -51 182 l-25 57 -56 1 c-31 1 -122 4 -204 8 -81 3 -147 4 -147 0z
m133 -26 c-7 -2 -21 -2 -30 0 -10 3 -4 5 12 5 17 0 24 -2 18 -5z m147 -2 c0
-9 -53 -31 -75 -31 -7 0 -23 9 -36 20 l-24 19 68 1 c37 0 67 -4 67 -9z m166
-806 c20 -48 17 -64 -6 -36 -18 21 -28 71 -14 71 3 0 12 -16 20 -35z"/>
<path d="M4469 2723 l-77 -4 -37 -86 c-33 -78 -37 -93 -33 -157 4 -79 23 -119
104 -215 38 -45 45 -59 42 -89 -2 -27 -10 -40 -29 -51 -53 -30 -116 18 -90 68
7 11 18 21 26 21 8 0 15 5 15 10 0 12 -20 13 -37 2 -17 -11 -33 -59 -26 -79
10 -29 46 -53 80 -53 l33 0 -30 -49 c-65 -105 -111 -270 -91 -324 6 -16 9 -9
13 31 3 33 14 65 32 90 19 28 26 50 26 86 0 50 11 77 61 151 56 83 46 168 -26
235 -35 32 -65 92 -65 127 0 48 41 106 83 120 48 16 101 -3 119 -42 16 -36 -7
-104 -43 -124 -32 -18 -79 -7 -86 19 -7 26 -23 26 -23 1 0 -24 36 -51 68 -51
91 0 139 124 73 191 -52 52 -144 31 -192 -43 l-21 -33 6 44 c4 24 19 74 34
110 25 60 30 66 59 69 18 2 53 -6 79 -17 49 -22 109 -28 119 -11 3 6 23 10 43
10 20 1 57 12 82 25 l45 24 -130 -1 c-71 -1 -164 -4 -206 -5z m162 -33 c-27
-23 -49 -25 -86 -8 -42 19 -28 28 43 28 l67 -1 -24 -19z m82 13 c-7 -2 -21 -2
-30 0 -10 3 -4 5 12 5 17 0 24 -2 18 -5z m-333 -793 c0 -25 -29 -84 -37 -76
-8 8 18 96 28 96 5 0 9 -9 9 -20z"/>
<path d="M1106 2620 c-71 -22 -115 -105 -82 -155 9 -13 22 -22 29 -19 7 2 28
36 47 75 38 79 51 89 109 89 23 0 41 5 41 10 0 12 -103 12 -144 0z m-24 -90
c-28 -62 -45 -71 -50 -28 -3 28 40 88 63 88 10 0 7 -16 -13 -60z"/>
<path d="M4505 2620 c3 -5 25 -10 49 -10 51 0 61 -10 105 -97 32 -65 53 -77
71 -44 26 50 -10 120 -77 147 -38 16 -157 19 -148 4z m189 -61 c26 -31 34 -73
16 -84 -5 -3 -23 21 -40 55 -34 68 -21 83 24 29z"/>
<path d="M1505 1560 c-3 -5 3 -15 13 -22 11 -7 43 -34 71 -60 29 -27 56 -48
61 -48 5 0 20 -11 34 -25 27 -27 39 -28 126 -16 77 11 108 -1 46 -19 -25 -7
-49 -16 -51 -20 -7 -12 112 -24 227 -23 106 0 107 0 94 -21 -20 -32 -27 -72
-17 -98 9 -21 10 -21 10 10 1 44 23 85 63 115 l32 26 -25 5 c-13 3 -85 17
-159 31 -118 23 -325 90 -435 140 -61 27 -84 34 -90 25z m228 -102 c42 -16 77
-31 77 -33 0 -9 -71 -23 -89 -18 -10 2 -24 16 -30 29 -6 13 -19 24 -29 24 -11
0 -27 10 -38 21 -19 22 -19 22 6 14 14 -4 60 -21 103 -37z m319 -89 c42 -9 49
-13 33 -20 -29 -11 -137 -10 -155 1 -13 9 -13 11 0 20 20 13 57 12 122 -1z"/>
<path d="M4210 1555 c-19 -7 -101 -38 -181 -69 -134 -52 -380 -116 -444 -116
-35 0 -40 -18 -11 -41 36 -28 56 -70 56 -116 0 -28 3 -34 10 -23 15 23 12 62
-8 101 l-18 36 105 -1 c117 0 237 13 224 25 -4 4 -30 14 -58 22 -45 14 -47 16
-20 18 43 3 63 2 122 -6 47 -7 54 -5 75 17 13 14 37 32 53 41 36 20 141 114
135 121 -3 2 -21 -2 -40 -9z m-85 -75 c-10 -11 -27 -20 -37 -20 -11 0 -23 -11
-28 -25 -8 -21 -16 -25 -47 -25 -21 0 -45 4 -52 9 -17 11 -11 14 99 55 80 31
88 31 65 6z m-297 -115 c22 -21 -116 -35 -163 -15 -17 6 -13 9 20 15 22 3 45
8 50 11 14 5 85 -3 93 -11z"/>
<path d="M2244 1310 c-31 -12 -64 -59 -64 -89 0 -34 23 -67 62 -87 43 -22 133
-11 215 26 35 16 63 25 63 20 0 -4 -9 -27 -20 -51 -34 -76 -19 -154 30 -154
24 0 25 4 36 90 6 50 19 116 29 148 9 32 15 60 13 62 -2 3 -20 -8 -39 -24 -70
-58 -202 -111 -277 -111 -24 0 -42 9 -63 29 -34 35 -36 59 -8 95 22 28 64 35
100 16 27 -15 25 5 -3 24 -25 18 -42 19 -74 6z m307 -237 c-10 -66 -24 -94
-38 -79 -15 15 -3 109 19 155 22 44 23 45 26 18 2 -15 -1 -58 -7 -94z"/>
<path d="M3429 1301 c-13 -11 -21 -23 -16 -27 4 -4 13 -2 19 4 22 22 75 14 97
-14 38 -49 17 -105 -46 -120 -58 -15 -243 50 -300 105 -27 26 -48 28 -38 4 17
-41 26 -83 35 -163 14 -108 17 -120 39 -120 48 0 64 81 31 158 -13 29 -20 55
-18 58 3 3 21 -4 39 -15 45 -25 134 -51 178 -51 41 0 94 29 111 61 18 32 4 84
-31 113 -36 31 -68 33 -100 7z m-214 -141 c25 -49 38 -126 25 -150 -17 -32
-28 -14 -40 65 -16 117 -13 139 15 85z"/>
<path d="M2450 1269 c-129 -44 -140 -50 -140 -70 0 -47 84 -30 168 32 79 60
70 73 -28 38z m-30 -48 c0 -5 -9 -12 -20 -15 -11 -3 -29 -9 -40 -12 -11 -3
-20 -1 -20 4 0 6 17 14 38 20 20 5 38 10 40 11 1 1 2 -3 2 -8z"/>
<path d="M3220 1282 c0 -4 24 -26 53 -49 84 -65 173 -82 165 -31 -2 17 -21 27
-103 55 -106 35 -115 37 -115 25z m190 -83 c0 -12 -5 -11 -45 5 -47 20 -44 26
5 14 22 -6 40 -14 40 -19z"/>
<path d="M2685 1246 c-41 -18 -58 -41 -57 -76 1 -37 17 -67 43 -81 27 -14 69
-3 69 18 0 13 -3 14 -12 5 -17 -17 -42 -15 -61 6 -17 19 -22 68 -9 88 13 20
54 36 78 30 32 -8 47 -40 48 -103 0 -42 -4 -58 -22 -75 -19 -19 -25 -21 -42
-10 -29 18 -33 15 -26 -14 9 -35 62 -116 119 -183 26 -30 47 -60 47 -67 0 -28
20 -23 36 8 9 18 38 58 64 88 53 62 100 138 100 163 0 20 -4 21 -30 5 -15 -10
-22 -9 -38 6 -45 40 -32 165 18 181 55 17 112 -45 87 -95 -18 -35 -43 -47 -67
-32 -16 10 -20 10 -20 -2 0 -14 21 -26 46 -26 8 0 26 11 39 25 31 30 34 93 7
118 -31 29 -77 40 -104 26 -56 -30 -70 -103 -38 -197 23 -65 21 -111 -6 -133
-12 -10 -14 -4 -14 37 0 57 -19 134 -45 183 -17 33 -18 34 -32 16 -23 -32 -53
-144 -53 -199 l-1 -51 -19 24 c-24 28 -26 78 -4 109 42 60 23 186 -32 211 -30
13 -32 13 -69 -3z m237 -260 c1 -36 -41 -171 -50 -161 -4 4 -16 39 -28 78 -22
75 -20 102 18 196 10 25 11 25 35 -28 13 -29 24 -68 25 -85z m-169 32 c2 -7 2
-21 -1 -31 -4 -16 -6 -16 -19 3 -14 20 -10 40 7 40 4 0 10 -6 13 -12z m265
-30 l-13 -23 -3 24 c-2 13 2 27 10 32 18 12 22 -5 6 -33z"/>
<path d="M2617 758 c-33 -18 -16 -37 75 -87 75 -40 94 -47 101 -35 13 23 37
17 120 -33 23 -14 -122 -172 -218 -238 -32 -23 -55 -46 -55 -56 0 -24 20 -17
83 28 26 19 47 33 47 31 0 -1 -32 -36 -70 -77 -38 -41 -67 -77 -65 -79 3 -3
13 2 23 11 25 23 26 22 80 -19 89 -68 308 -162 329 -141 12 13 -19 32 -97 61
-88 33 -195 94 -228 129 l-24 25 40 42 c36 38 42 41 62 30 21 -11 28 -6 91 56
38 38 69 76 69 85 0 25 -29 32 -56 14 -31 -20 -30 -14 3 36 16 24 32 38 40 34
7 -3 20 -8 28 -11 26 -11 16 10 -13 27 -15 8 -81 44 -147 79 -66 34 -124 66
-130 70 -24 17 -72 27 -88 18z"/>
<path d="M3303 720 c-48 -11 -119 -57 -148 -95 -116 -151 -73 -378 89 -463 47
-25 60 -27 166 -27 109 0 118 2 168 30 132 73 187 254 123 400 -27 59 -108
130 -172 149 -54 17 -170 20 -226 6z m196 -76 c68 -40 100 -141 87 -267 -15
-148 -129 -224 -252 -168 -72 33 -108 109 -107 226 0 117 48 199 131 226 36
11 107 3 141 -17z"/>
<path d="M1348 714 c-5 -4 -8 -20 -8 -35 0 -26 3 -28 43 -31 l42 -3 5 -191 c7
-249 7 -248 -48 -252 -42 -3 -43 -4 -40 -35 l3 -32 155 0 155 0 3 33 c3 31 2
32 -32 32 -65 0 -66 2 -66 112 l0 101 61 -6 c86 -8 99 -22 111 -133 8 -74 15
-94 36 -116 22 -24 34 -28 78 -28 65 0 101 27 114 85 17 72 14 85 -20 85 -27
0 -30 -3 -30 -32 0 -41 -13 -63 -32 -55 -10 3 -17 27 -21 71 -7 78 -18 101
-58 125 l-30 18 47 24 c66 33 88 66 87 130 -1 38 -6 56 -24 76 -47 51 -77 57
-309 61 -118 2 -218 0 -222 -4z m387 -78 c26 -11 35 -22 40 -48 8 -41 -7 -83
-36 -98 -12 -7 -57 -14 -100 -17 l-79 -6 0 92 0 91 70 0 c39 0 86 -6 105 -14z"/>
<path d="M2224 685 c-7 -19 -14 -37 -14 -41 0 -3 -32 -97 -71 -208 -73 -205
-91 -236 -136 -236 -21 0 -24 -4 -21 -32 l3 -33 130 0 130 0 3 32 c3 31 2 32
-40 35 -41 3 -43 5 -42 33 1 17 7 42 13 58 10 27 11 27 105 27 l94 0 17 -45
c23 -59 16 -75 -35 -75 -40 0 -41 -1 -38 -32 l3 -33 145 0 145 0 3 33 c3 30 1
32 -26 32 -16 0 -34 6 -40 13 -6 7 -49 114 -95 238 -46 124 -89 235 -96 247
-10 19 -20 22 -67 22 -53 0 -55 -1 -70 -35z m71 -132 c15 -37 55 -157 55 -165
0 -4 -29 -8 -65 -8 -44 0 -65 4 -65 12 0 21 54 178 61 178 4 0 10 -8 14 -17z"/>
<path d="M3788 714 c-5 -4 -8 -20 -8 -36 0 -25 3 -28 33 -28 18 0 38 -5 45
-12 17 -17 17 -409 0 -426 -7 -7 -27 -12 -46 -12 -32 0 -33 -2 -30 -32 l3 -33
153 -3 152 -3 0 36 c0 34 -1 35 -38 35 -56 0 -62 11 -62 117 l0 93 38 0 c56 0
110 -18 123 -42 6 -11 14 -59 19 -106 7 -76 11 -89 34 -109 30 -25 110 -32
148 -12 26 14 48 68 48 119 0 36 -3 40 -24 40 -25 0 -36 -16 -36 -56 0 -28
-28 -44 -41 -23 -5 8 -9 34 -9 59 -2 72 -20 112 -60 132 -31 14 -33 17 -15 23
76 24 125 78 125 138 0 49 -29 96 -74 120 -38 20 -59 22 -256 25 -118 2 -218
0 -222 -4z m402 -89 c16 -15 20 -29 18 -63 -4 -63 -31 -81 -136 -89 l-82 -6 0
93 0 92 90 -4 c69 -3 94 -8 110 -23z"/>
</g>
</svg>
